<?xml version="1.0" encoding="utf-8"?>
<!-- Generator: Adobe Illustrator 28.1.0, SVG Export Plug-In . SVG Version: 6.00 Build 0)  -->
<svg version="1.1" id="a" xmlns="http://www.w3.org/2000/svg" xmlns:xlink="http://www.w3.org/1999/xlink" x="0px" y="0px"
	 viewBox="0 0 100 120" style="enable-background:new 0 0 100 120;" xml:space="preserve">
<style type="text/css">
	.st0 {
    fill: #AA59FB;
  }
</style>
<path class="st0" d="M67.3,10.9c-5.6,3.8-9,6.1-17.3,6.1s-11.6-2.3-17.2-6.1C26,6.3,16.8,0,0,0v25.5c16.8,0,26,6.3,32.8,10.9
	c5.6,3.8,9,6.1,17.2,6.1s11.6-2.3,17.3-6.1c6.8-4.6,16-10.9,32.7-10.9V0C83.3,0,74,6.3,67.3,10.9z"/>
<path class="st0" d="M67.3,88.3c-5.6,3.8-9,6.1-17.3,6.1s-11.6-2.3-17.2-6.1C26,83.7,16.8,77.4,0,77.4V103c16.8,0,26,6.3,32.8,10.9
	c5.6,3.8,9,6.1,17.2,6.1s11.6-2.3,17.3-6.1c6.8-4.6,16-10.9,32.7-10.9V77.4C83.3,77.4,74,83.7,67.3,88.3z"/>
<path class="st0" d="M67.3,49.6c-5.6,3.8-9,6.1-17.3,6.1s-11.6-2.3-17.2-6.1C26,45,16.8,38.7,0,38.7v25.5c16.8,0,26,6.3,32.8,10.9
	c5.6,3.8,9,6.1,17.2,6.1s11.6-2.3,17.3-6.1c6.8-4.6,16-10.9,32.7-10.9V38.7C83.3,38.7,74,45,67.3,49.6z"/>
</svg>
