<?xml version="1.0" encoding="UTF-8"?>
<svg xmlns="http://www.w3.org/2000/svg" viewBox="0 0 214 124">
  <defs>
    <style>
      .e {
        fill: #ff774e;
      }

      .e, .f {
        stroke-width: 0px;
      }

      .f {
        fill: #fff;
      }
    </style>
  </defs>
  <g id="a" data-name="Out.Fill">
    <path id="b" data-name="Out.Fill" class="f" d="M185.58,45.71c.37-2.57.51-5.19.37-7.82-1.1-21.25-18.8-37.9-40.29-37.9H0v36h32v52H0v36h174c22.06,0,40-17.94,40-40,0-18.03-12-33.31-28.42-38.29ZM145.65,36c2.29,0,4.23,1.69,4.34,3.76.08,1.63-.72,2.74-1.21,3.25-.57.6-1.27.99-1.79.99h-79v-8h77.65ZM174,88h-106v-8h106c2.21,0,4,1.79,4,4s-1.79,4-4,4Z"/>
  </g>
  <g id="c" data-name="In.Fill">
    <g>
      <path class="e" d="M159.98,39.24c.2,3.89-1.16,7.58-3.83,10.39-2.67,2.81-6.28,4.36-10.15,4.36h-78v16h106c14.89,0,27,12.11,27,27,0,.02,0,.05,0,.07,1.92-3.95,3-8.39,3-13.07,0-16.54-13.46-30-30-30h-1.46c2.51-4.73,3.7-10.06,3.42-15.58-.83-15.93-14.14-28.42-30.31-28.42H8v16h137.65c7.65,0,13.94,5.82,14.33,13.24Z"/>
      <path class="e" d="M191,97c0-3.76-1.24-7.23-3.32-10.05-1.36,6.31-6.97,11.05-13.68,11.05H58V34h-16v64H8v16h166c9.37,0,17-7.63,17-17Z"/>
    </g>
  </g>
</svg>